<?xml version="1.0" encoding="utf-8"?>
<!-- Generator: Adobe Illustrator 24.0.2, SVG Export Plug-In . SVG Version: 6.00 Build 0)  -->
<svg version="1.1" id="Camada_1" xmlns="http://www.w3.org/2000/svg" xmlns:xlink="http://www.w3.org/1999/xlink" x="0px" y="0px"
	 viewBox="0 0 135 26" style="enable-background:new 0 0 135 26;" xml:space="preserve">
<style type="text/css">
	.st0{enable-background:new    ;}
	.st1{fill:#FFFFFF;}
</style>
<g>
	<g transform="translate(-30 -19)">
		<g transform="translate(30.828 20.558)">
			<g transform="translate(-33.133 -36.275)">
				<g transform="translate(33.133 36.275)">
					<g class="st0">
						<path class="st1" d="M40,17.9l2.5-12.2h8.5l-0.4,2h-6L44,10.7h5.9l-0.4,2h-5.9l-1.1,5.2H40z"/>
						<path class="st1" d="M58,15.2h-4.8l-1.5,2.7h-2.6L56,5.7h2.8l2,12.2h-2.4L58,15.2z M57.7,13.2L57,8.3L54,13.2H57.7z"/>
						<path class="st1" d="M63.3,14l2.4-0.1c0,0.8,0.2,1.3,0.4,1.5c0.4,0.4,1,0.6,2,0.6c0.8,0,1.4-0.1,1.8-0.4s0.5-0.6,0.5-1.1
							c0-0.4-0.1-0.7-0.4-0.9c-0.2-0.2-0.8-0.5-1.7-0.9c-0.9-0.4-1.6-0.8-2.1-1c-0.4-0.3-0.8-0.6-1-1.1c-0.2-0.4-0.4-0.9-0.4-1.5
							c0-1,0.4-1.9,1.1-2.5c0.7-0.7,1.8-1,3.2-1c1.4,0,2.5,0.3,3.3,1s1.2,1.6,1.3,2.7l-2.4,0.1c-0.1-0.6-0.3-1-0.6-1.3
							c-0.4-0.3-0.9-0.5-1.6-0.5c-0.7,0-1.2,0.1-1.5,0.4c-0.3,0.2-0.4,0.6-0.4,0.9c0,0.3,0.1,0.6,0.4,0.9c0.3,0.2,0.9,0.5,1.8,1
							c1.4,0.6,2.3,1.1,2.7,1.5c0.6,0.6,0.9,1.3,0.9,2.1c0,1.1-0.4,2-1.3,2.8s-2,1.1-3.5,1.1c-1,0-2-0.2-2.7-0.5
							c-0.8-0.4-1.3-0.8-1.6-1.5C63.4,15.5,63.2,14.8,63.3,14z"/>
						<path class="st1" d="M80.1,17.9h-2.5l2.1-10.1h-3.6l0.4-2h9.6l-0.4,2h-3.5L80.1,17.9z"/>
						<path class="st1" d="M85.7,17.9l2.5-12.2h8.5l-0.4,2h-6l-0.6,2.9h5.9l-0.4,2h-5.9l-1.1,5.2H85.7z"/>
						<path class="st1" d="M96.7,17.9l2.5-12.2h9l-0.4,2h-6.5l-0.6,2.8h6.3l-0.4,2h-6.3l-0.8,3.3h7.1l-0.4,2H96.7z"/>
						<path class="st1" d="M108.6,17.9l2.5-12.2h9l-0.4,2h-6.5l-0.6,2.8h6.3l-0.4,2h-6.3l-0.8,3.3h7.1l-0.4,2H108.6z"/>
						<path class="st1" d="M125.8,17.9h-2.5l2.1-10.1h-3.6l0.4-2h9.6l-0.4,2h-3.5L125.8,17.9z"/>
					</g>
					<path class="st1" d="M33,15.4H10.6c-0.4,0-0.7,0.3-0.7,0.7c0,0.4,0.3,0.7,0.7,0.7H33c0.4,0,0.7-0.3,0.7-0.7
						C33.6,15.7,33.3,15.4,33,15.4z"/>
					<path class="st1" d="M34.6,11.6H14c-0.4,0-0.6,0.3-0.6,0.7c0,0.3,0.3,0.6,0.6,0.6h20.7c0.4,0,0.6-0.3,0.6-0.7
						C35.2,11.9,35,11.6,34.6,11.6z"/>
					<path class="st1" d="M30.6,7.9H8.2c-0.4,0-0.7,0.3-0.6,0.7c0,0.3,0.3,0.6,0.6,0.6h22.4c0.4,0,0.7-0.3,0.6-0.7
						C31.2,8.2,30.9,7.9,30.6,7.9z"/>
					<path class="st1" d="M9.8,22.7c-3.2,0-5.9-2.6-5.9-5.9c0-0.2,0-0.3,0-0.5C0.9,15.3-0.7,12,0.3,8.9c0.8-2.4,3-4,5.5-4
						c0.2,0,0.4,0,0.6,0c0.4-2.8,2.9-4.9,5.7-4.9c2.8,0,5.2,2,5.7,4.7c0.1,0.4-0.2,0.8-0.6,0.9c-0.4,0.1-0.8-0.2-0.9-0.6l0,0
						c-0.4-2-2.2-3.5-4.3-3.5c-2.3,0-4.3,1.8-4.3,4.2c0,0,0,0.1,0,0.1c0,0.4-0.3,0.8-0.8,0.8c-0.1,0-0.2,0-0.3-0.1L6.7,6.6
						C4.3,6.1,2,7.6,1.6,10s1.1,4.6,3.4,5.1c0.4,0.1,0.7,0.5,0.6,0.9c0,0.1,0,0.1,0,0.2l-0.1,0.1c0,0,0,0.1,0,0.1
						c0,0.1-0.1,0.3-0.1,0.4c0,2.4,1.9,4.4,4.4,4.3c1.8,0,3.4-1.1,4-2.7c0.2-0.4,0.6-0.6,1-0.4s0.6,0.6,0.4,1
						C14.3,21.3,12.2,22.7,9.8,22.7z"/>
				</g>
			</g>
		</g>
	</g>
</g>
</svg>
