<svg xmlns="http://www.w3.org/2000/svg" viewBox="0 0 610.44 111.2"><defs><style>.cls-1{fill:#fff;}</style></defs><title>logo-white</title><g id="Camada_2" data-name="Camada 2"><g id="Camada_1-2" data-name="Camada 1"><path class="cls-1" d="M429.68,36.91q-8-12.72-27.49-12.72a45.18,45.18,0,0,0-23.56,6.36,45.84,45.84,0,0,0-16.88,17.59,51.21,51.21,0,0,0-6.2,25.21q0,11.63,4.94,20.18a33.91,33.91,0,0,0,13.27,13.11A37.32,37.32,0,0,0,392,111.2q15.39,0,25.92-9.58l-1.57,8.32h23.24l16.81-84.5h-24.5Zm-8.49,40.68a23.51,23.51,0,0,1-21.67,13.35q-9.11,0-14.21-5T380.2,72.25a31.94,31.94,0,0,1,3.14-14.45A23.49,23.49,0,0,1,405,44.45q9.11,0,14.21,5t5.11,13.67A31.84,31.84,0,0,1,421.19,77.59Z"/><path class="cls-1" d="M495.09,45.08q4.16-2.36,12.17-2.36,14.61,0,25,6.44l8.8-17.9a52,52,0,0,0-14.14-5.19,77.64,77.64,0,0,0-17.12-1.88q-19,0-30.7,7.85t-11.7,21.83q0,8,4.32,12.64a24.91,24.91,0,0,0,10.21,6.68,108.46,108.46,0,0,0,15,3.77,75,75,0,0,1,11.63,3c2.4,1,3.61,2.47,3.61,4.56q0,3.93-4.08,6t-12.41,2.12a59.6,59.6,0,0,1-15.94-2.19,47.68,47.68,0,0,1-13.43-5.81l-9.42,17.74q5.49,3.93,15.31,6.36A86.31,86.31,0,0,0,493,111.2q18.84,0,30.7-7.7t11.86-21.83q0-7.85-4.24-12.41a24.22,24.22,0,0,0-10-6.51,113.45,113.45,0,0,0-14.69-3.7,73.15,73.15,0,0,1-12.09-3.22q-3.62-1.48-3.61-4.79C490.93,48.64,492.31,46.65,495.09,45.08Z"/><path class="cls-1" d="M585.63,46.18h21l3.76-18.85h-21l4.08-20.58H569L564.9,27.33h-13l-3.77,18.85h13l-6.75,34.08a40.7,40.7,0,0,0-.79,7.38q0,11,7.22,17.28T580,111.2q12.87,0,21-5l-3.61-17.43a19.29,19.29,0,0,1-9.9,3q-8.94,0-9-8.17a14.82,14.82,0,0,1,.32-3.45Z"/><path class="cls-1" d="M324.83,49.47H294.76l5.81-29h57.49L362.3,0H279.21l-10.6,53-25.18,1.58c0-.15,0-.32,0-.47a42.54,42.54,0,0,0-5-20.83,34,34,0,0,0-14-13.83q-9-4.83-21.28-4.83a49.3,49.3,0,0,0-25.76,6.75A47.17,47.17,0,0,0,159.83,40a53.94,53.94,0,0,0-6,20.18L0,69.89H153.64A40.67,40.67,0,0,0,158.73,88,35,35,0,0,0,173.8,102q9.82,4.92,22.86,4.92a60.94,60.94,0,0,0,19.16-3,47.84,47.84,0,0,0,16.17-9L221.78,77.78a30.9,30.9,0,0,1-10.28,6.16,35.33,35.33,0,0,1-12.33,2.17c-12.88,0-20-5.45-21.53-16.22h87.6l-8,40.05h25.6l8-40h50.73l4.24-20.42h-21Zm-146,4.65c1.66-8.12,4.75-11.8,8.73-15.08a22.22,22.22,0,0,1,14.6-4.91q8.64,0,13.75,4.91c3.32,3.2,5.46,9.09,5.57,16.93l-43.24,2.72Z"/></g></g></svg>